<svg width="18" height="18" viewBox="0 0 18 18" fill="none" xmlns="http://www.w3.org/2000/svg">
<g clip-path="url(#clip0_10_89)">
<path d="M17.7802 16.7197L13.3035 12.243C14.5234 10.7509 15.1232 8.84703 14.9788 6.92513C14.8344 5.00323 13.9569 3.21036 12.5276 1.91735C11.0984 0.624341 9.2269 -0.0698723 7.30019 -0.0216984C5.37348 0.0264755 3.53899 0.813351 2.17617 2.17617C0.813351 3.53899 0.0264755 5.37348 -0.0216984 7.30019C-0.0698723 9.2269 0.624341 11.0984 1.91735 12.5276C3.21036 13.9569 5.00323 14.8344 6.92513 14.9788C8.84703 15.1232 10.7509 14.5234 12.243 13.3035L16.7197 17.7802C16.8612 17.9168 17.0506 17.9924 17.2473 17.9907C17.4439 17.989 17.632 17.9101 17.7711 17.7711C17.9101 17.632 17.989 17.4439 17.9907 17.2473C17.9924 17.0506 17.9168 16.8612 17.7802 16.7197ZM7.49996 13.5C6.31327 13.5 5.15323 13.1481 4.16654 12.4888C3.17984 11.8295 2.41081 10.8924 1.95668 9.79606C1.50256 8.6997 1.38374 7.4933 1.61525 6.32942C1.84676 5.16553 2.4182 4.09643 3.25732 3.25732C4.09643 2.4182 5.16553 1.84676 6.32942 1.61525C7.4933 1.38374 8.6997 1.50256 9.79606 1.95668C10.8924 2.41081 11.8295 3.17984 12.4888 4.16654C13.1481 5.15323 13.5 6.31327 13.5 7.49996C13.4982 9.09071 12.8655 10.6158 11.7406 11.7406C10.6158 12.8655 9.09071 13.4982 7.49996 13.5Z" fill="#5E81F4"/>
</g>
<defs>
<clipPath id="clip0_10_89">
<rect width="18" height="18" fill="white"/>
</clipPath>
</defs>
</svg>
